<?xml version="1.0" standalone="no"?>
<!DOCTYPE svg PUBLIC "-//W3C//DTD SVG 20010904//EN"
 "http://www.w3.org/TR/2001/REC-SVG-20010904/DTD/svg10.dtd">
<svg version="1.0" xmlns="http://www.w3.org/2000/svg"
 width="343.000000pt" height="600.000000pt" viewBox="0 0 343.000000 600.000000"
 preserveAspectRatio="xMidYMid meet">
<g transform="translate(0.000000,600.000000) scale(0.100000,-0.100000)"
fill="#000000" stroke="none">
<path d="M1365 5162 c-6 -6 -93 -23 -117 -23 -10 0 -44 1 -77 2 -48 2 -67 -3
-104 -24 -25 -15 -60 -27 -77 -27 -29 0 -32 -3 -28 -25 3 -14 0 -33 -7 -42
-11 -14 -10 -23 1 -46 26 -50 50 -67 84 -61 23 5 34 2 48 -16 21 -26 52 -22
52 7 0 13 -14 24 -42 34 -24 8 -42 20 -41 27 2 7 -6 12 -17 12 -24 0 -38 25
-32 56 6 34 21 30 37 -10 11 -26 20 -33 41 -33 18 0 34 -10 47 -27 11 -15 28
-26 42 -26 13 0 41 -11 61 -25 38 -26 65 -25 29 1 -11 8 -21 19 -21 24 -1 6
-3 13 -4 18 -1 4 -2 15 -1 25 1 9 -4 17 -13 17 -10 0 -16 -9 -16 -25 0 -35
-29 -33 -65 5 -16 17 -35 30 -42 30 -17 0 -63 48 -63 65 0 29 90 52 187 47 35
-2 42 -6 45 -24 4 -30 34 -35 41 -8 3 13 0 20 -9 20 -8 0 -14 6 -14 14 0 9 17
15 52 18 59 6 78 2 78 -17 0 -8 17 -35 37 -62 20 -26 37 -56 38 -65 1 -20 43
-68 58 -68 6 0 2 10 -9 23 l-19 22 22 -19 c13 -10 20 -23 16 -29 -3 -5 -2 -7
4 -4 6 4 18 1 27 -6 16 -12 15 -13 -6 -13 -13 0 -44 15 -70 34 -46 32 -60 52
-38 52 6 0 10 5 10 11 0 6 -9 8 -21 4 -13 -4 -28 0 -42 12 -12 10 -6 0 13 -22
39 -46 113 -105 132 -105 7 0 24 -9 38 -20 14 -11 34 -20 45 -20 11 0 31 -10
45 -21 l25 -20 -25 7 c-39 12 -63 10 -67 -4 -4 -9 2 -11 19 -7 29 7 66 -6 131
-48 47 -30 48 -32 23 -35 -15 -2 -38 6 -55 17 -16 12 -33 21 -39 21 -5 0 -15
6 -21 14 -6 7 -22 11 -34 9 -14 -3 -31 2 -39 11 -9 8 -18 13 -21 10 -2 -3 -27
15 -55 39 -59 50 -196 121 -217 113 -8 -3 -15 -12 -15 -20 0 -10 -6 -13 -17
-9 -26 10 -8 -11 37 -42 22 -15 44 -24 48 -20 4 4 1 10 -5 12 -7 3 -13 13 -13
24 0 10 -7 19 -15 19 -8 0 -15 7 -15 16 0 12 15 7 70 -23 162 -89 224 -169
138 -179 -13 -1 -23 -3 -23 -4 0 -5 -62 -9 -73 -5 -11 4 -10 8 2 20 14 15 12
19 -17 45 -18 15 -49 31 -69 35 -20 4 -45 15 -55 25 -11 9 -36 23 -56 29 -20
7 -37 17 -37 23 0 6 -6 6 -15 -2 -13 -11 -10 -15 22 -32 38 -20 123 -96 123
-110 0 -17 -59 -66 -102 -83 -42 -18 -47 -23 -50 -57 -4 -41 19 -71 50 -66 34
6 22 -163 -14 -193 -8 -6 -14 -25 -14 -42 0 -50 -31 -103 -67 -116 -18 -7 -33
-19 -33 -27 0 -8 -6 -14 -14 -14 -8 0 -16 -7 -20 -15 -6 -16 -41 -20 -50 -6
-4 5 0 12 6 15 9 3 4 12 -14 26 -16 12 -28 26 -28 32 0 6 9 3 20 -7 38 -34 34
-5 -5 35 -56 57 -201 100 -232 69 -17 -17 -4 -39 23 -39 39 0 128 -57 175
-112 24 -28 50 -57 58 -65 12 -12 12 -21 2 -49 -15 -41 -7 -98 18 -140 15 -25
16 -36 6 -97 -7 -37 -17 -73 -24 -80 -6 -6 -11 -21 -11 -34 0 -18 -7 -25 -30
-30 -29 -5 -30 -8 -30 -57 0 -29 -6 -58 -12 -65 -7 -6 -14 -38 -15 -69 -2 -88
-3 -90 -29 -139 -23 -44 -23 -47 -7 -66 17 -18 17 -19 -2 -33 -10 -8 -16 -15
-12 -15 4 -1 11 -2 16 -3 30 -4 24 -53 -11 -86 l-22 -20 32 -33 c24 -24 30
-38 25 -56 -5 -21 -10 -23 -45 -18 -22 3 -42 8 -45 11 -6 6 -17 128 -15 161 1
11 4 36 6 55 3 19 5 39 5 44 1 5 8 2 18 -5 15 -13 16 -11 10 13 -4 15 -3 30 3
33 5 3 10 13 10 21 0 8 -4 12 -10 9 -6 -4 -10 6 -10 24 0 16 4 33 10 36 6 3
10 13 10 21 0 8 -5 12 -10 9 -14 -9 -50 -85 -50 -107 0 -10 -9 -27 -21 -39
-16 -16 -20 -29 -15 -50 3 -17 1 -38 -5 -47 -11 -18 0 -71 71 -325 36 -129 51
-248 37 -294 -11 -36 -1 -119 32 -272 25 -115 27 -170 5 -186 -15 -10 -15 -16
0 -71 9 -32 23 -86 32 -119 8 -33 17 -67 19 -76 3 -8 -4 -25 -16 -38 -13 -13
-18 -29 -14 -39 3 -9 13 -48 21 -87 8 -38 34 -119 58 -180 59 -148 78 -209 75
-242 -2 -16 0 -34 4 -40 16 -26 67 -177 67 -198 0 -21 29 -89 66 -158 22 -41
136 -148 151 -143 7 3 13 -1 13 -8 0 -7 25 -21 58 -31 31 -9 77 -24 101 -32
24 -7 57 -11 73 -8 23 5 27 4 22 -9 -5 -14 5 -16 74 -16 62 0 81 -3 84 -15 2
-11 12 -9 51 10 27 14 62 25 78 25 16 0 29 5 29 10 0 6 7 10 15 10 9 0 18 6
21 14 3 8 16 17 29 20 14 4 29 15 35 26 7 14 21 20 43 20 18 0 37 4 43 9 15
15 185 69 238 76 27 4 66 18 87 31 21 13 47 24 57 24 10 0 22 3 26 7 9 9 78
33 97 33 9 0 24 9 34 20 10 11 27 22 39 26 21 7 74 48 147 117 22 20 47 37 55
37 20 0 84 51 84 68 0 6 6 12 13 12 37 0 176 196 177 249 0 13 14 53 30 88 17
35 28 68 25 73 -3 4 0 21 6 37 7 15 13 37 15 48 2 11 5 34 7 50 3 17 13 55 24
85 16 47 17 60 6 90 -8 23 -12 87 -11 190 2 153 -5 203 -37 255 -14 22 -32 92
-45 172 -6 32 -21 69 -43 100 -19 26 -42 62 -51 80 -9 17 -26 35 -38 38 -29 9
-68 44 -68 62 0 7 -8 13 -18 13 -37 0 -78 74 -48 86 22 8 20 18 -6 29 -18 8
-23 18 -22 43 1 20 -2 32 -10 30 -33 -7 -96 71 -96 119 0 10 -9 43 -20 73 -11
30 -30 96 -41 145 -12 50 -30 126 -41 170 -10 44 -27 88 -37 99 -17 16 -23 17
-48 6 -23 -11 -29 -18 -25 -37 4 -21 1 -23 -36 -23 -31 0 -44 5 -52 20 -7 14
-7 20 0 20 5 0 10 7 10 16 0 8 -4 13 -9 10 -5 -4 -7 3 -4 14 6 21 -13 28 -20
8 -3 -10 -7 -10 -19 -1 -12 11 -19 8 -38 -12 -13 -14 -20 -31 -17 -39 7 -18
23 -21 32 -6 12 19 40 10 57 -20 15 -26 23 -30 58 -30 35 0 42 4 53 28 6 15
16 30 21 34 14 10 38 -12 32 -29 -3 -8 -2 -12 3 -9 4 3 13 -10 18 -29 9 -27 8
-35 -4 -39 -19 -8 -9 -52 17 -81 20 -21 44 -110 35 -125 -3 -5 -1 -11 4 -14 8
-5 51 -124 51 -142 0 -3 -9 -4 -21 -1 -19 5 -20 4 -5 -12 9 -10 16 -23 16 -29
0 -16 17 -15 23 1 3 6 6 -1 6 -16 1 -20 14 -42 46 -73 47 -45 56 -64 30 -64
-21 0 -24 -72 -4 -96 6 -8 4 -14 -6 -18 -22 -8 -18 -26 6 -26 11 0 17 4 14 10
-3 6 1 7 9 4 21 -8 20 10 0 30 -22 23 -23 69 -1 74 13 3 17 -3 17 -26 0 -29
33 -82 51 -82 6 0 22 -14 36 -30 14 -17 38 -37 54 -46 24 -12 29 -20 28 -52
-1 -33 -2 -34 -9 -12 -7 21 -8 22 -9 5 -1 -17 -3 -17 -11 -5 -5 8 -10 11 -10
6 0 -6 -9 0 -20 12 -22 24 -35 27 -45 12 -7 -12 -35 -1 -35 14 0 7 5 17 11 23
12 12 62 -9 87 -37 12 -13 13 -13 9 0 -3 13 -73 69 -87 70 -3 0 -14 -14 -24
-32 -19 -30 -19 -31 0 -45 11 -8 31 -12 46 -9 17 3 28 0 32 -10 3 -8 17 -19
31 -24 20 -7 25 -15 20 -29 -6 -20 13 -71 27 -71 11 0 10 7 -6 38 -9 18 -11
35 -5 51 9 22 11 22 32 9 23 -16 40 -87 17 -73 -9 6 -9 2 -1 -14 7 -11 18 -21
26 -21 8 0 15 -5 15 -11 0 -5 5 -7 10 -4 6 3 11 -2 11 -12 1 -10 3 -42 5 -70
2 -29 -1 -53 -6 -53 -5 0 -7 7 -4 15 5 11 0 15 -17 14 -13 0 -18 -3 -11 -6 6
-2 12 -9 12 -15 0 -6 -7 -8 -15 -4 -8 3 -15 1 -15 -4 0 -6 12 -10 26 -10 14 0
23 -4 19 -10 -3 -5 1 -10 10 -10 9 0 13 5 10 10 -3 6 -3 10 2 10 9 0 24 -30
48 -100 23 -63 12 -196 -17 -211 -15 -8 -18 -17 -13 -37 3 -15 14 -33 23 -40
11 -8 13 -15 6 -20 -20 -13 -11 -66 14 -77 27 -12 28 -25 2 -32 -22 -6 -26
-23 -9 -40 8 -8 5 -23 -10 -54 -13 -26 -17 -47 -12 -52 5 -5 3 -23 -5 -43 -8
-18 -14 -42 -14 -52 0 -11 -24 -34 -62 -61 -35 -23 -94 -67 -133 -97 -116 -90
-223 -139 -377 -174 -75 -16 -151 -30 -169 -31 -19 0 -68 -13 -109 -27 -92
-34 -125 -73 -165 -193 -23 -68 -27 -93 -23 -155 3 -45 1 -74 -5 -74 -5 0 -4
-6 2 -14 14 -17 8 -21 -39 -30 -34 -5 -36 -4 -62 43 -21 38 -26 58 -21 84 3
20 1 49 -5 65 -5 16 -8 59 -5 95 l6 67 72 59 c87 73 179 127 245 147 28 8 70
33 99 58 37 31 67 47 109 56 41 10 67 24 92 49 19 19 53 42 75 52 81 36 128
110 141 224 9 77 -11 146 -62 215 -75 99 -87 137 -91 280 -6 199 -40 290 -108
290 -35 0 -113 -58 -166 -124 -107 -132 -105 -131 -143 -93 -17 17 -25 40 -30
87 -13 112 -72 196 -172 241 -74 34 -86 48 -99 113 -12 61 -36 71 -87 34 -50
-35 -127 -32 -201 10 -37 21 -70 32 -96 32 -22 0 -64 9 -92 20 -34 14 -76 21
-120 21 -72 0 -104 -11 -209 -79 -77 -49 -120 -60 -219 -54 -62 3 -85 1 -91
-9 -13 -19 -42 8 -35 32 4 10 -1 33 -9 51 -9 18 -24 60 -34 94 l-19 61 33 -10
c23 -7 36 -19 43 -39 5 -15 6 -28 2 -28 -5 0 -11 -14 -15 -32 -5 -23 -2 -34 9
-41 8 -4 15 -19 15 -32 0 -13 4 -26 9 -29 5 -4 7 3 4 14 -3 12 1 22 11 26 21
8 108 118 134 170 35 70 98 140 154 172 73 41 169 144 210 221 32 63 33 68 32
185 0 119 -1 123 -53 271 -29 83 -64 184 -78 225 -15 41 -37 92 -50 112 -12
21 -23 42 -23 46 0 5 -9 21 -20 34 -19 25 -20 58 -2 82 15 19 51 123 45 130
-3 3 -6 22 -7 43 -1 31 -6 40 -31 53 -16 8 -31 15 -32 15 -1 0 -4 11 -8 25 -5
23 -1 28 37 44 91 39 131 104 91 149 -17 19 -17 19 7 12 61 -19 68 -24 77 -62
l9 -38 60 -3 c54 -3 63 0 87 24 15 14 24 31 20 37 -4 7 0 8 13 2 10 -4 30 -8
44 -8 13 1 48 -14 76 -33 39 -26 59 -33 78 -28 20 5 36 -3 78 -38 29 -23 55
-47 57 -52 2 -4 12 -15 22 -24 12 -10 16 -24 13 -41 -5 -22 2 -31 42 -59 34
-24 49 -30 54 -21 9 14 23 -9 34 -55 5 -20 2 -31 -9 -40 -16 -12 -11 -51 6
-41 4 3 6 12 2 20 -3 8 0 15 6 15 10 0 15 -20 12 -47 -2 -12 10 -17 25 -10 5
2 33 -42 34 -54 0 -4 -9 -9 -20 -12 -26 -7 -26 -39 1 -55 14 -9 18 -19 14 -32
-9 -27 3 -60 21 -60 8 0 26 7 40 16 13 9 26 15 28 13 1 -2 13 -20 26 -39 13
-19 45 -56 72 -81 33 -33 48 -55 48 -73 0 -15 7 -29 15 -32 8 -4 15 -15 15
-25 0 -10 6 -19 13 -19 8 0 19 -12 25 -26 7 -14 16 -23 21 -20 11 7 28 -31 35
-76 4 -33 2 -38 -15 -38 -10 0 -19 -5 -19 -10 0 -6 11 -8 26 -4 23 6 25 4 19
-15 -5 -15 -2 -21 9 -21 19 0 22 50 4 68 -7 7 -11 27 -10 46 2 20 -4 38 -13
46 -8 7 -22 27 -30 44 -9 17 -31 49 -51 71 -20 22 -40 52 -46 67 -5 16 -14 25
-19 22 -5 -3 -6 2 -3 11 5 11 2 16 -7 15 -30 -5 -38 2 -67 48 -16 26 -39 57
-51 69 -11 12 -21 25 -21 27 0 3 -25 51 -56 106 -31 55 -62 120 -69 143 -23
72 -48 113 -92 148 -23 19 -80 67 -125 107 -46 41 -92 82 -103 91 -11 10 -66
53 -122 95 -114 86 -181 156 -225 232 -19 35 -36 53 -53 56 -14 3 -27 3 -30 0z
m-366 -99 c0 -5 -4 -17 -9 -28 -8 -18 -9 -17 -9 8 -1 15 4 27 9 27 6 0 10 -3
9 -7z m7 -88 c9 -14 20 -23 24 -20 5 3 11 1 14 -4 8 -12 -20 -22 -39 -15 -8 4
-15 15 -15 25 0 10 -4 19 -10 19 -5 0 -10 5 -10 10 0 18 19 10 36 -15z m1029
-442 c38 -44 30 -57 -15 -27 -41 27 -53 54 -25 54 9 0 27 -12 40 -27z m-1075
-297 c8 -17 25 -41 38 -53 16 -14 20 -23 11 -23 -8 0 -36 23 -64 50 -27 28
-55 50 -61 50 -14 0 -36 25 -29 32 3 3 25 -2 49 -10 30 -11 47 -24 56 -46z
m381 -236 c96 -268 111 -325 113 -430 1 -92 -1 -99 -37 -172 -28 -59 -54 -92
-108 -142 -40 -37 -94 -78 -120 -93 -48 -26 -69 -54 -187 -242 -28 -45 -74
-82 -89 -69 -17 13 -16 26 2 61 8 15 12 34 9 42 -3 7 2 29 11 49 16 33 16 37
-1 65 -10 17 -23 31 -28 31 -5 0 -1 9 10 21 10 12 18 23 17 25 -1 2 0 11 4 20
3 9 -1 40 -9 70 -15 52 -14 58 4 107 11 29 22 79 23 112 1 33 7 71 13 85 5 14
15 43 22 65 7 22 21 46 31 53 11 7 19 22 19 33 0 10 4 19 8 19 29 0 43 180 17
214 -8 11 -12 29 -9 39 3 11 1 23 -5 27 -9 5 -9 14 -1 34 14 37 13 73 -2 80
-7 4 -3 4 10 2 14 -3 22 1 22 9 0 8 9 17 20 20 11 3 20 11 20 16 0 5 5 9 10 9
15 0 70 51 70 65 0 6 5 16 12 23 18 18 67 -77 129 -248z m850 218 c7 -13 19
-28 27 -34 24 -18 25 -52 1 -59 -23 -8 -54 14 -31 22 22 8 13 43 -13 53 -25 9
-31 21 -18 33 12 12 22 7 34 -15z m294 -579 c9 -13 7 -15 -30 -23 -29 -7 -29
-7 -11 13 21 23 32 26 41 10z m230 -176 c4 -14 2 -23 -4 -23 -6 0 -11 3 -11 8
0 4 -3 18 -6 32 -8 31 11 16 21 -17z m-1907 -208 c-6 -14 -13 -24 -14 -22 -6
6 9 47 17 47 5 0 3 -11 -3 -25z m761 -394 c28 -12 67 -21 87 -21 19 0 61 -13
94 -30 73 -37 147 -41 198 -10 52 32 72 27 72 -18 0 -59 35 -101 102 -121 81
-25 156 -123 165 -218 3 -32 12 -70 19 -85 30 -58 87 -61 125 -5 13 17 26 34
29 37 3 3 17 20 32 37 50 61 118 113 147 113 63 0 98 -97 100 -282 2 -139 13
-174 83 -267 51 -68 67 -110 68 -182 0 -115 -50 -211 -128 -242 -20 -8 -54
-31 -74 -50 -21 -20 -46 -38 -55 -41 -10 -3 -37 -10 -59 -15 -23 -6 -70 -34
-104 -61 -34 -28 -71 -50 -81 -50 -63 0 -307 -172 -328 -231 -14 -40 -14 -156
-1 -164 6 -4 8 -26 4 -56 -5 -38 -3 -54 9 -67 20 -22 33 -72 19 -72 -12 0
-134 -69 -142 -80 -3 -4 -16 -9 -30 -12 -40 -8 -55 -13 -60 -18 -12 -12 -52
-31 -57 -26 -3 2 9 33 25 68 16 35 33 79 37 98 15 80 47 205 56 221 5 11 16
15 29 12 14 -4 20 0 20 12 0 12 -5 15 -22 10 -38 -12 -54 -43 -72 -139 -20
-108 -42 -177 -68 -223 -19 -31 -24 -33 -71 -33 -29 1 -63 7 -77 15 -14 8 -40
14 -58 15 -18 0 -49 7 -69 15 -19 8 -43 15 -53 15 -52 0 -184 107 -236 193
-25 40 -64 148 -64 175 0 10 -3 22 -7 26 -4 3 -8 16 -10 27 -2 11 -13 42 -24
69 -12 27 -18 53 -15 58 8 13 -45 196 -71 247 -21 40 -50 134 -72 231 -10 42
-9 55 3 80 9 16 14 36 11 44 -2 8 -6 32 -10 54 -3 21 -8 43 -11 48 -3 5 1 24
10 43 16 34 13 58 -11 86 -11 13 -11 19 4 35 29 32 153 91 226 107 38 9 77 23
86 31 21 19 62 21 79 4 7 -7 34 -13 60 -14 26 -2 58 -4 71 -6 15 -2 26 3 28
12 4 12 3 12 -5 1 -8 -11 -14 -11 -33 0 -13 7 -41 12 -62 10 -21 -1 -47 5 -59
14 -30 20 -50 19 -81 -5 -14 -11 -49 -25 -79 -30 -29 -6 -66 -15 -83 -22 -44
-18 -169 -89 -178 -102 -5 -6 -5 0 0 14 11 36 9 140 -4 148 -6 4 -12 34 -15
66 -3 33 -10 62 -16 64 -17 5 -15 22 3 22 21 0 19 28 -2 32 -20 4 -29 74 -12
94 6 7 12 42 14 78 3 54 1 65 -13 68 -13 3 -10 8 13 23 24 17 46 20 130 20
l101 0 96 58 c53 32 109 62 125 67 42 14 142 4 202 -19z m1625 -277 c9 -22 -3
-32 -14 -14 -12 19 -12 30 -1 30 5 0 12 -7 15 -16z m-2233 -521 c5 -14 9 -33
7 -41 -5 -25 -25 -25 -31 0 -3 13 -9 33 -12 46 -11 33 23 29 36 -5z m2329 -2
c0 -21 -26 -36 -36 -20 -6 11 13 39 27 39 5 0 9 -9 9 -19z m-73 -506 c-7 -14
-16 -25 -20 -25 -5 0 -6 -4 -2 -9 3 -5 1 -12 -5 -16 -5 -3 -12 -28 -16 -55 -5
-37 -10 -47 -21 -43 -12 5 -14 1 -8 -15 3 -12 2 -22 -3 -22 -6 0 -14 -12 -20
-27 -12 -35 -53 -83 -70 -83 -7 0 -11 -4 -8 -9 3 -5 -4 -16 -17 -24 -12 -8
-39 -31 -61 -51 -21 -20 -45 -36 -54 -36 -8 0 -30 -16 -49 -35 -19 -19 -38
-35 -42 -35 -5 0 -24 -15 -43 -32 -19 -18 -52 -42 -72 -52 -20 -11 -36 -23
-36 -27 0 -7 -58 -24 -72 -21 -5 1 -8 -3 -8 -8 0 -6 -16 -10 -37 -8 -32 2 -37
0 -35 -14 2 -10 -2 -18 -8 -18 -6 0 -8 5 -5 10 3 6 1 10 -4 10 -6 0 -11 -4
-11 -8 0 -13 -76 -52 -102 -52 -13 0 -50 -9 -83 -21 -56 -20 -60 -20 -72 -3
-13 17 -19 70 -15 129 4 54 54 186 82 219 32 35 132 73 234 87 221 30 377 88
509 191 108 84 170 128 178 128 4 0 2 -11 -4 -25z"/>
<path d="M1521 2364 c-25 -31 -25 -32 -5 -64 14 -25 14 -25 8 11 -10 63 54 98
78 42 7 -16 18 -36 26 -45 17 -21 68 -24 76 -5 5 9 8 8 13 -3 11 -24 109 -120
123 -120 11 0 11 -3 2 -12 -27 -27 -10 -72 32 -79 11 -2 30 -24 43 -48 13 -25
29 -52 37 -60 7 -9 17 -33 20 -54 6 -29 15 -43 41 -58 18 -11 37 -32 43 -47
17 -43 22 -168 9 -186 -7 -9 -40 -29 -74 -46 -35 -16 -63 -33 -63 -38 0 -14
24 -32 43 -32 14 0 17 -4 12 -17 -4 -10 -11 -30 -15 -44 -13 -44 -39 -86 -55
-93 -12 -4 -15 -13 -10 -35 3 -17 2 -32 -4 -36 -6 -3 -11 -19 -11 -36 0 -24 4
-29 24 -29 16 0 35 -14 60 -44 52 -64 48 -89 -8 -41 -41 35 -57 33 -52 -7 5
-43 27 -89 38 -82 5 3 3 15 -5 27 -32 51 -28 105 5 59 17 -24 56 -45 68 -37
18 11 11 37 -20 74 -17 20 -35 42 -41 48 -5 7 -18 13 -28 13 -23 0 -35 28 -20
46 6 8 9 27 6 42 -5 22 -1 30 16 37 15 7 30 32 45 75 13 35 30 72 38 81 18 20
18 29 -2 29 -8 0 -12 -4 -9 -10 3 -5 0 -7 -9 -4 -31 12 -24 32 17 50 77 33 79
36 71 143 -7 102 -19 135 -60 153 -16 7 -28 25 -36 52 -6 23 -17 48 -25 57 -7
8 -13 19 -13 24 0 19 -54 85 -69 85 -10 0 -22 5 -29 12 -17 17 -15 48 3 48 8
0 15 7 15 15 0 8 -7 15 -17 15 -17 0 -91 72 -129 124 -21 29 -22 29 -28 8 -4
-12 -15 -22 -25 -22 -21 0 -51 30 -51 51 0 45 -67 53 -99 13z m449 -820 c0
-17 -22 -14 -28 4 -2 7 3 12 12 12 9 0 16 -7 16 -16z"/>
<path d="M1330 5091 c0 -15 29 -33 44 -28 8 3 20 -1 26 -9 7 -8 18 -14 25 -14
7 0 18 -7 25 -15 7 -9 14 -14 16 -12 5 5 -71 87 -79 87 -4 0 -7 -7 -7 -15 0
-8 -5 -15 -11 -15 -5 0 -8 4 -5 9 3 5 -1 12 -10 15 -21 8 -24 8 -24 -3z"/>
<path d="M1287 5033 c-13 -16 -13 -20 -1 -31 12 -11 14 -10 14 4 0 9 8 23 18
30 15 12 15 13 1 14 -9 0 -23 -8 -32 -17z"/>
<path d="M905 5017 c-4 -10 -5 -21 -1 -24 10 -10 18 4 13 24 -4 17 -4 17 -12
0z"/>
<path d="M862 4979 c-15 -24 -10 -34 13 -26 15 6 22 47 7 47 -4 0 -13 -9 -20
-21z"/>
<path d="M1250 4992 c0 -19 12 -42 22 -42 14 0 5 43 -9 48 -7 2 -13 -1 -13 -6z"/>
<path d="M910 4911 c0 -14 -6 -21 -20 -21 -13 0 -18 5 -14 15 4 9 0 15 -10 15
-10 0 -16 -9 -16 -23 0 -19 8 -25 45 -35 74 -20 82 -17 80 23 -3 41 -12 55
-25 35 -7 -11 -11 -11 -24 -1 -14 12 -16 10 -16 -8z"/>
<path d="M727 4843 c-18 -17 -6 -63 22 -82 29 -21 66 -28 74 -13 12 19 -7 63
-29 68 -13 3 -28 12 -35 20 -13 15 -22 18 -32 7z m47 -55 c-3 -4 1 -8 9 -8 8
0 17 -7 21 -15 8 -23 -12 -18 -39 10 -30 29 -34 51 -6 33 11 -7 17 -16 15 -20z"/>
<path d="M1093 4535 c-7 -19 -5 -20 25 -29 25 -8 31 11 10 32 -16 16 -27 15
-35 -3z"/>
<path d="M858 3645 c-2 -3 -1 -26 3 -53 4 -26 8 -66 8 -89 1 -23 6 -45 13 -49
8 -5 10 17 5 86 -5 85 -15 119 -29 105z"/>
<path d="M2724 3245 c-3 -8 -4 -20 -1 -27 4 -8 6 -6 6 5 1 24 18 21 24 -5 4
-12 9 -19 12 -16 3 3 3 17 -1 32 -7 28 -31 35 -40 11z"/>
<path d="M2690 3203 c0 -13 69 -45 81 -38 15 10 10 25 -7 18 -9 -3 -19 -1 -23
4 -8 14 -51 27 -51 16z"/>
<path d="M3130 2635 c0 -8 -4 -15 -10 -15 -5 0 -10 -4 -10 -10 0 -5 7 -10 15
-10 9 0 15 9 15 25 0 14 -2 25 -5 25 -3 0 -5 -7 -5 -15z"/>
<path d="M3160 2529 c-10 -6 -11 -9 -2 -9 6 0 12 -9 12 -19 0 -11 6 -21 13
-24 7 -3 2 -9 -12 -14 -24 -9 -24 -10 -3 -15 34 -9 45 35 18 73 -8 12 -16 15
-26 8z"/>
</g>
</svg>
