<?xml version="1.0" encoding="UTF-8"?>
<svg version="1.1" xmlns="http://www.w3.org/2000/svg" width="624" height="468">
<path d="M0 0 C1.30066406 -0.03996094 2.60132813 -0.07992188 3.94140625 -0.12109375 C13.13855 -0.11162192 13.13855 -0.11162192 16.05859375 2.48046875 C17.32579099 4.55515445 18.27239183 6.65166539 19.25 8.875 C20.53117029 10.69721015 20.53117029 10.69721015 21.96875 12.359375 C22.42636719 12.90207031 22.88398438 13.44476563 23.35546875 14.00390625 C23.81566406 14.53886719 24.27585937 15.07382812 24.75 15.625 C25.21019531 16.17542969 25.67039062 16.72585937 26.14453125 17.29296875 C28.93533918 20.57118538 31.79264291 23.27667949 35.25 25.875 C36.71179688 27.01582031 36.71179688 27.01582031 38.203125 28.1796875 C38.99589844 28.7969873 38.99589844 28.7969873 39.8046875 29.42675781 C46.00253543 34.26436377 52.14856124 39.16641686 58.25 44.125 C58.95543945 44.6907373 59.66087891 45.25647461 60.38769531 45.83935547 C64.73885729 49.3976068 69.16129279 53.12201779 72.25 57.875 C72.25 58.865 72.25 59.855 72.25 60.875 C73.24 60.875 74.23 60.875 75.25 60.875 C76.26241247 62.76423398 77.25947425 64.66169944 78.25 66.5625 C78.806875 67.61824219 79.36375 68.67398438 79.9375 69.76171875 C81.2172274 72.79726262 81.53851043 74.63526826 81.25 77.875 C81.91 77.875 82.57 77.875 83.25 77.875 C83.51554688 78.42929688 83.78109375 78.98359375 84.0546875 79.5546875 C84.58449219 80.64136719 84.58449219 80.64136719 85.125 81.75 C85.64707031 82.82894531 85.64707031 82.82894531 86.1796875 83.9296875 C87.21557543 86.02635019 87.21557543 86.02635019 89.25 87.875 C89.25 89.195 89.25 90.515 89.25 91.875 C88.26 91.875 87.27 91.875 86.25 91.875 C86.58 93.525 86.91 95.175 87.25 96.875 C87.91 96.875 88.57 96.875 89.25 96.875 C89.58 95.555 89.91 94.235 90.25 92.875 C94.80516576 94.68135884 96.25811205 97.71466582 98.6875 101.78125 C100.40152803 104.07804756 101.73029632 104.6409648 104.25 105.875 C105.26529541 108.20171865 106.26488198 110.5353447 107.25 112.875 C107.95125 113.390625 108.6525 113.90625 109.375 114.4375 C111.25 115.875 111.25 115.875 112 119.0625 C112.0825 119.990625 112.165 120.91875 112.25 121.875 C113.24 121.875 114.23 121.875 115.25 121.875 C119.1927097 126.513482 119.78608902 130.02972162 120.25 135.875 C120.56323028 137.54556149 120.88678515 139.21458925 121.25 140.875 C119.93 140.875 118.61 140.875 117.25 140.875 C117.25 142.195 117.25 143.515 117.25 144.875 C116.59 144.875 115.93 144.875 115.25 144.875 C115.58 145.535 115.91 146.195 116.25 146.875 C118.14533342 147.34023063 118.14533342 147.34023063 120.3125 147.5 C122.2615625 147.685625 122.2615625 147.685625 124.25 147.875 C123.92 146.555 123.59 145.235 123.25 143.875 C129.62522442 142.55184022 129.62522442 142.55184022 132.0625 143.8125 C135.34156308 149.50771482 135.47784298 155.49539668 135.25 161.875 C135.91 161.875 136.57 161.875 137.25 161.875 C138.08885377 165.31117708 138.92012919 168.74914337 139.75 172.1875 C139.98847656 173.16396484 140.22695313 174.14042969 140.47265625 175.14648438 C140.69824219 176.08427734 140.92382812 177.02207031 141.15625 177.98828125 C141.36572266 178.85235596 141.57519531 179.71643066 141.79101562 180.60668945 C142.25 182.875 142.25 182.875 142.25 185.875 C142.91 185.875 143.57 185.875 144.25 185.875 C144.92119549 187.3312545 145.58681807 188.79007867 146.25 190.25 C146.62125 191.06210938 146.9925 191.87421875 147.375 192.7109375 C148.25 194.875 148.25 194.875 148.25 196.875 C149.24 196.875 150.23 196.875 151.25 196.875 C151.25 197.535 151.25 198.195 151.25 198.875 C152.24 198.875 153.23 198.875 154.25 198.875 C154.25 200.855 154.25 202.835 154.25 204.875 C155.24 205.205 156.23 205.535 157.25 205.875 C157.25 208.515 157.25 211.155 157.25 213.875 C157.9925 214.08125 158.735 214.2875 159.5 214.5 C163.08410114 216.29205057 164.20946956 218.47411593 166.25 221.875 C168.16561053 224.87956812 168.16561053 224.87956812 171.12109375 226.62890625 C175.93707661 229.44780264 178.26599959 235.81912518 180.25 240.875 C181.2041471 244.62824252 181.88031459 248.34549059 182.49609375 252.16796875 C183.23999683 255.82581342 184.41939764 258.729356 185.9375 262.125 C189.86550812 272.27919412 188.60429909 283.46111603 188.21582031 294.16455078 C188.24694003 296.63234468 188.58582661 298.52003272 189.25 300.875 C189.62999389 306.63120372 188.51868995 311.31104843 186.875 316.75 C186.42729129 318.26752428 185.98197546 319.78575658 185.5390625 321.3046875 C185.32016357 322.05419678 185.10126465 322.80370605 184.87573242 323.57592773 C184.23710982 325.92236124 183.71480398 328.27280796 183.21484375 330.65234375 C182.52902905 333.84401988 181.65711425 336.62885938 180.1875 339.5625 C178.93549306 342.07123843 178.24990438 343.87579021 177.91015625 346.68359375 C177.04194124 350.88082253 175.14853488 353.74708771 172.75 357.25 C172.30076172 357.9112085 171.85152344 358.57241699 171.38867188 359.25366211 C165.84206868 367.180585 159.48286255 372.32428488 151.1015625 377.046875 C147.47414665 379.37239639 144.29355513 382.10602236 141 384.875 C133.50559566 391.10298658 125.02217297 396.15857618 115.25 397.875 C114.92 397.545 114.59 397.215 114.25 396.875 C113.899375 397.308125 113.54875 397.74125 113.1875 398.1875 C107.15304737 403.44331358 98.29305267 404.36572861 90.72460938 405.98046875 C89.37012695 406.28404297 89.37012695 406.28404297 87.98828125 406.59375 C87.17399658 406.76841797 86.35971191 406.94308594 85.52075195 407.12304688 C82.97343562 407.96658352 81.36556448 409.2530946 79.25 410.875 C78.280625 411.01808594 77.31125 411.16117187 76.3125 411.30859375 C71.66941042 412.16732843 69.22155333 415.05158038 65.8125 418.16015625 C62.69715654 420.24496689 60.92195198 420.06799333 57.25 419.875 C56.528125 420.390625 55.80625 420.90625 55.0625 421.4375 C51.17676903 423.42354027 48.2126638 422.75355019 43.96875 422.19921875 C41.25598633 421.80755682 41.25598633 421.80755682 38.53125 421.95703125 C36.25 421.875 36.25 421.875 34.25 419.875 C32.47000726 419.53581572 30.6742363 419.27736943 28.875 419.0625 C15.80716681 417.08109569 4.63392643 411.09649935 -3.75 400.875 C-8.30670676 393.514166 -11.26024096 386.15811747 -13.0625 377.6875 C-13.95040911 374.05514455 -15.38388945 370.79442453 -16.98046875 367.421875 C-17.75 364.875 -17.75 364.875 -17.5234375 361.46484375 C-17.36663998 354.79509858 -20.66331075 348.72394272 -23.1875 342.6875 C-24.21334623 340.19652269 -25.23025959 337.70213242 -26.24609375 335.20703125 C-26.92949829 333.56311401 -26.92949829 333.56311401 -27.62670898 331.88598633 C-29.20203357 327.6633221 -29.89785312 323.99598321 -29.70703125 319.50390625 C-29.43242204 310.09086096 -29.50549467 302.27844799 -32.97265625 293.40625 C-33.72455633 289.99058331 -33.63576078 288.07790763 -33.21875 284.671875 C-32.29453933 275.86074741 -33.8949025 267.32888076 -35.1875 258.625 C-35.43415105 256.89730749 -35.67960281 255.16944333 -35.92382812 253.44140625 C-36.51875716 249.25049879 -37.12982134 245.06224223 -37.75 240.875 C-37.09 240.875 -36.43 240.875 -35.75 240.875 C-35.89050781 239.89789063 -36.03101563 238.92078125 -36.17578125 237.9140625 C-36.46569593 235.89528489 -36.74981465 233.87640212 -37.01708984 231.85449219 C-38.41182626 221.33348932 -40.51550271 211.30983218 -43.68041992 201.16943359 C-45.35276599 195.72590176 -46.33965342 190.55425256 -46.75 184.875 C-46.82863281 183.92109375 -46.90726563 182.9671875 -46.98828125 181.984375 C-47.19110672 175.53666008 -47.19110672 175.53666008 -45 172.25 C-43.88625 171.074375 -43.88625 171.074375 -42.75 169.875 C-41.64349963 167.79732665 -40.65420115 165.68919426 -39.6796875 163.546875 C-38.75 161.875 -38.75 161.875 -36.75 160.875 C-37.30728913 164.21873475 -38.10173889 166.90812999 -39.75 169.875 C-38.76 170.205 -37.77 170.535 -36.75 170.875 C-37.27010299 173.73556642 -37.92287914 176.45846708 -38.75 179.25 C-40.93368289 186.75652358 -40.93368289 186.75652358 -38.75 193.875 C-39.125 196.125 -39.125 196.125 -39.75 197.875 C-35.77245872 198.60834429 -35.77245872 198.60834429 -31.75 198.875 C-32.430625 198.00875 -33.11125 197.1425 -33.8125 196.25 C-35.75 192.875 -35.75 192.875 -35.5625 189.8125 C-35.0841568 188.08310535 -34.60524126 186.35386853 -34.125 184.625 C-33.64216666 181.08422218 -34.15789495 177.89507454 -34.69140625 174.375 C-34.76145881 171.38609077 -33.87827626 169.63300863 -32.75 166.875 C-32.25690045 163.6630043 -31.87594 160.45809109 -31.5390625 157.2265625 C-31.13237759 153.72065811 -30.74937525 151.87406288 -28.75 148.875 C-28.47973629 146.75955136 -28.47973629 146.75955136 -28.4375 144.5 C-28.02161401 139.74041594 -26.35532162 138.04064825 -22.75 134.875 C-20.70842988 130.92379796 -20.50718964 127.59724417 -20.5625 123.1875 C-20.56894531 122.04925781 -20.57539063 120.91101563 -20.58203125 119.73828125 C-20.55804161 116.93052819 -20.55804161 116.93052819 -21.75 114.875 C-22.23688412 111.93312827 -22.4480682 108.97081402 -22.6875 106 C-22.78095703 105.18402344 -22.87441406 104.36804688 -22.97070312 103.52734375 C-23.14877602 101.17984511 -23.20856482 99.18561573 -22.75 96.875 C-20.19140625 94.6171875 -20.19140625 94.6171875 -16.75 92.875 C-10.12623552 89.23148499 -8.05824164 85.23563864 -5.8125 78.125 C-5.51021484 77.2690625 -5.20792969 76.413125 -4.89648438 75.53125 C-3.09316332 70.13355432 -1.66419034 64.578568 -2.75 58.875 C-5.15144575 56.72050034 -5.15144575 56.72050034 -7.75 54.875 C-8.5625 51.125 -8.5625 51.125 -8.75 47.875 C-6.24568051 46.30085632 -3.89465731 44.93010755 -1.125 43.875 C1.3120024 42.84889373 2.45438239 41.75612321 4.25 39.875 C4.91 39.875 5.57 39.875 6.25 39.875 C3.25748653 35.45128443 -0.25832124 33.05094874 -4.7265625 30.3046875 C-6.75 28.875 -6.75 28.875 -8.75 25.875 C-7.43 25.545 -6.11 25.215 -4.75 24.875 C-6.30961362 23.91197644 -7.87283225 22.95478996 -9.4375 22 C-10.30761719 21.46632813 -11.17773438 20.93265625 -12.07421875 20.3828125 C-14.68076919 18.81175467 -14.68076919 18.81175467 -17.4375 17.9296875 C-20.24181896 16.65069068 -20.8233214 15.64912823 -22.0625 12.875 C-22.55169922 11.823125 -22.55169922 11.823125 -23.05078125 10.75 C-23.75 8.875 -23.75 8.875 -23.75 6.875 C-16.96718453 -0.03342316 -9.17295856 -0.10120616 0 0 Z M2.25 2.875 C2.25 3.535 2.25 4.195 2.25 4.875 C2.91644531 5.02453125 3.58289063 5.1740625 4.26953125 5.328125 C13.61678774 7.99503454 18.32525338 13.58653027 24.25 20.875 C24.91 20.545 25.57 20.215 26.25 19.875 C25.55132812 19.06675781 24.85265625 18.25851563 24.1328125 17.42578125 C23.21320054 16.34664477 22.29394865 15.26720138 21.375 14.1875 C20.91480469 13.65705078 20.45460938 13.12660156 19.98046875 12.58007812 C17.34286747 9.46465053 15.66307209 6.68206316 14.25 2.875 C10.4268416 0.9634208 6.19551835 1.55982722 2.25 2.875 Z M-19.6875 5.375 C-20.368125 6.2 -21.04875 7.025 -21.75 7.875 C-20.51861777 13.39679492 -20.51861777 13.39679492 -16.6875 17.19140625 C-15.10880849 17.85352193 -13.51425947 18.47906513 -11.90625 19.06640625 C-9.49555277 19.97041771 -7.75001768 21.27498586 -5.75 22.875 C-5.09 22.875 -4.43 22.875 -3.75 22.875 C-3.75 22.215 -3.75 21.555 -3.75 20.875 C-3.028125 21.32875 -2.30625 21.7825 -1.5625 22.25 C0.99894081 23.72994358 3.48277989 24.84717539 6.25 25.875 C5.59 23.895 4.93 21.915 4.25 19.875 C16.70661546 25.13103713 16.70661546 25.13103713 21.875 29.6875 C26.05511951 33.21737869 29.47707363 33.66864013 34.8671875 33.70703125 C37.25 33.875 37.25 33.875 40.25 35.875 C42.40274948 35.56659401 42.40274948 35.56659401 44.25 34.875 C39.28577106 30.64988959 35.82942915 27.71492713 29.25 26.875 C22.84286106 24.21247782 18.87421762 19.25949935 14.48022461 14.11791992 C10.74744412 9.95615892 7.6178524 8.32817639 2.1484375 7.5 C1.52195312 7.29375 0.89546875 7.0875 0.25 6.875 C-0.5234375 4.8125 -0.5234375 4.8125 -0.75 2.875 C-10.81880967 1.78456565 -10.81880967 1.78456565 -19.6875 5.375 Z M6.25 21.875 C6.58 23.855 6.91 25.835 7.25 27.875 C6.528125 27.545 5.80625 27.215 5.0625 26.875 C2.23302573 25.86896471 0.22104534 25.70522598 -2.75 25.875 C1.25562976 29.19532925 5.66253191 30.73867114 10.47265625 32.59375 C13.07666922 33.79503868 14.60309988 34.54996454 16.25 36.875 C16.25 38.195 16.25 39.515 16.25 40.875 C21.91104589 40.37841703 26.12674471 39.32989316 31.25 36.875 C31.25 36.215 31.25 35.555 31.25 34.875 C30.26 34.689375 29.27 34.50375 28.25 34.3125 C24.86955594 33.37085326 22.96765588 31.90648227 20.4375 29.5 C16.20442138 25.51641521 11.71761102 23.67886347 6.25 21.875 Z M-4.75 27.875 C-3.7290625 28.679375 -3.7290625 28.679375 -2.6875 29.5 C-1.2334375 30.675625 -1.2334375 30.675625 0.25 31.875 C0.86230469 32.36871094 1.47460938 32.86242187 2.10546875 33.37109375 C2.73066406 33.88800781 3.35585937 34.40492187 4 34.9375 C4.59296875 35.42347656 5.1859375 35.90945312 5.796875 36.41015625 C7.25 37.875 7.25 37.875 8.25 40.875 C7.63125 40.978125 7.0125 41.08125 6.375 41.1875 C3.88473516 41.75025373 3.88473516 41.75025373 2.25 44.875 C0.33984375 45.6484375 0.33984375 45.6484375 -1.8125 46.25 C-5.15781696 47.34100487 -5.15781696 47.34100487 -7 50.3125 C-6.97243666 53.02009117 -6.97243666 53.02009117 -4.9375 55.125 C-2.87659049 56.89900854 -2.87659049 56.89900854 -0.75 57.875 C-0.78710374 67.33645366 -3.33186686 75.36566703 -6.47265625 84.1640625 C-7.85848973 87.53608042 -7.85848973 87.53608042 -7.75 89.875 C-8.41 90.08125 -9.07 90.2875 -9.75 90.5 C-10.74 90.95375 -11.73 91.4075 -12.75 91.875 C-13.44738281 92.18566406 -14.14476562 92.49632813 -14.86328125 92.81640625 C-17.47059259 94.2937283 -18.98909123 95.42763527 -20.75 97.875 C-21.70290496 103.69475512 -21.96029508 109.90345461 -19.703125 115.4453125 C-17.56363431 120.89926007 -18.75293739 127.95179372 -20.609375 133.39453125 C-21.88211109 136.03301107 -23.17925685 138.34891157 -25.34765625 140.34765625 C-27.35457521 142.53346492 -27.25256007 144.77750294 -27.44140625 147.64453125 C-27.75 149.875 -27.75 149.875 -28.7109375 152.68359375 C-29.84769516 156.17506369 -30.35170606 159.48511506 -30.8125 163.125 C-31.648017 169.67103399 -31.648017 169.67103399 -32.75 171.875 C-32.84555417 173.33079587 -32.87984691 174.7910796 -32.875 176.25 C-32.87757813 177.02085937 -32.88015625 177.79171875 -32.8828125 178.5859375 C-32.83607693 180.86409795 -32.83607693 180.86409795 -32.15234375 182.9296875 C-31.44302243 186.35922163 -33.27371959 188.80433674 -34.75 191.875 C-34.255 192.4525 -33.76 193.03 -33.25 193.625 C-31.75 195.875 -31.75 195.875 -31.75 199.875 C-33.6371875 199.9059375 -33.6371875 199.9059375 -35.5625 199.9375 C-36.27019531 199.94910156 -36.97789062 199.96070313 -37.70703125 199.97265625 C-39.75 199.875 -39.75 199.875 -42.75 198.875 C-42.56824219 199.60203125 -42.38648438 200.3290625 -42.19921875 201.078125 C-41.66904092 203.19883634 -41.14051886 205.31996202 -40.61328125 207.44140625 C-40.06054041 209.63986418 -39.49647835 211.83552571 -38.91796875 214.02734375 C-37.53880851 219.30619846 -36.40793408 224.41607472 -35.9375 229.85546875 C-35.76176961 231.74823154 -35.44797656 233.62673593 -35.125 235.5 C-34.75 238.875 -34.75 238.875 -35.28442383 242.01220703 C-35.83235748 246.55830363 -35.42479619 250.53986708 -34.82421875 255.0546875 C-34.71656693 255.90805695 -34.6089151 256.76142639 -34.4980011 257.64065552 C-34.26960714 259.43127484 -34.03655523 261.22130562 -33.79907227 263.01074219 C-33.43607809 265.76077236 -33.09311597 268.51281067 -32.75195312 271.265625 C-32.52723136 273.00796636 -32.30136098 274.75016004 -32.07421875 276.4921875 C-31.97203537 277.31814423 -31.86985199 278.14410095 -31.76457214 278.99508667 C-31.49635722 280.96585314 -31.13241089 282.9231748 -30.75 284.875 C-30.09 285.205 -29.43 285.535 -28.75 285.875 C-28.15644386 288.52360427 -28.00790731 291.16697322 -27.75 293.875 C-28.74 294.205 -29.73 294.535 -30.75 294.875 C-30.41742188 295.83148438 -30.08484375 296.78796875 -29.7421875 297.7734375 C-28.42488579 302.38283594 -28.69754723 306.75178039 -28.875 311.5 C-29.00524355 320.05963714 -27.95368301 326.8702297 -24.75 334.875 C-23.38564218 338.30854995 -22.03220158 341.7462042 -20.6875 345.1875 C-20.33341064 346.08879639 -19.97932129 346.99009277 -19.61450195 347.91870117 C-17.00640275 354.73908028 -15.4679541 361.31216403 -14.31640625 368.50390625 C-13.58486814 372.85781929 -12.33051541 376.76848227 -10.75 380.875 C-10.37875 381.91398437 -10.0075 382.95296875 -9.625 384.0234375 C-5.63294447 394.92673917 -0.65158509 405.77000425 10.15234375 411.3828125 C13.15618571 412.6479868 16.18195585 413.77630852 19.25 414.875 C19.99765625 415.20628906 20.7453125 415.53757812 21.515625 415.87890625 C26.60595708 418.11344179 29.94899626 417.91626859 35.25 416.875 C35.745 418.36 35.745 418.36 36.25 419.875 C36.99765625 419.93558594 37.7453125 419.99617188 38.515625 420.05859375 C39.99289062 420.18427734 39.99289062 420.18427734 41.5 420.3125 C42.47453125 420.39371094 43.4490625 420.47492188 44.453125 420.55859375 C47.25 420.875 47.25 420.875 49.5 421.49609375 C50.0775 421.62113281 50.655 421.74617188 51.25 421.875 C51.8275 421.42125 52.405 420.9675 53 420.5 C55.25 418.875 55.25 418.875 58.9375 418.625 C63.81194332 418.21728634 66.43462091 415.60486979 70.0625 412.53125 C73.05890453 410.26254372 75.59231496 409.57540777 79.25 408.875 C79.25 408.215 79.25 407.555 79.25 406.875 C79.83523438 406.78863281 80.42046875 406.70226562 81.0234375 406.61328125 C87.35846505 405.57646743 93.50601456 404.08210714 99.6875 402.375 C100.46851074 402.16141846 101.24952148 401.94783691 102.05419922 401.7277832 C107.38198666 400.33693879 107.38198666 400.33693879 112.25 397.875 C112.58 396.885 112.91 395.895 113.25 394.875 C113.78882813 395.07609375 114.32765625 395.2771875 114.8828125 395.484375 C120.70788403 396.44560793 127.27085261 392.86216922 132.06103516 389.66699219 C135.70428984 386.97625465 139.17499841 384.0801898 142.65136719 381.17919922 C147.04211629 377.59713115 151.77912737 374.37954125 156.6171875 371.43359375 C165.65049918 365.85240623 173.6250546 356.00777881 176.92578125 345.78125 C177.22278677 344.47959103 177.50052076 343.17336877 177.7578125 341.86328125 C178.32550821 339.56997081 179.22850932 337.62872694 180.25 335.5 C182.0520134 331.60447103 182.9564076 327.97115179 183.67578125 323.75390625 C184.64034497 318.91796434 186.13182529 314.21037615 187.54296875 309.48828125 C188.32481952 305.49263504 187.87722034 302.88921016 187.25 298.875 C187.22061233 296.79577896 187.22707182 294.71592023 187.2578125 292.63671875 C187.28294922 290.91098633 187.28294922 290.91098633 187.30859375 289.15039062 C187.35265069 286.7700202 187.4046564 284.38978282 187.46484375 282.00976562 C187.5749437 273.04662842 187.05180412 265.05059498 181.25 257.875 C180.92 259.525 180.59 261.175 180.25 262.875 C179.59 262.875 178.93 262.875 178.25 262.875 C178.25 261.225 178.25 259.575 178.25 257.875 C177.59 257.875 176.93 257.875 176.25 257.875 C176.18941406 257.30652344 176.12882813 256.73804688 176.06640625 256.15234375 C175.56923483 247.7588052 175.56923483 247.7588052 173.25 239.875 C171.6 239.875 169.95 239.875 168.25 239.875 C168.1675 238.988125 168.085 238.10125 168 237.1875 C167.12877853 233.33960517 166.15156538 231.54130332 163.25 228.875 C160.08151973 228.45690799 160.08151973 228.45690799 157.25 228.875 C157.25 227.555 157.25 226.235 157.25 224.875 C162.78846154 225.36730769 162.78846154 225.36730769 165.125 227.9375 C165.49625 228.576875 165.8675 229.21625 166.25 229.875 C167.24 229.545 168.23 229.215 169.25 228.875 C168.75628906 228.24851563 168.26257813 227.62203125 167.75390625 226.9765625 C167.11324219 226.15929687 166.47257813 225.34203125 165.8125 224.5 C164.85537109 223.28183594 164.85537109 223.28183594 163.87890625 222.0390625 C162.25 219.875 162.25 219.875 161.25 217.875 C160.2909375 217.689375 160.2909375 217.689375 159.3125 217.5 C157.25 216.875 157.25 216.875 155.9375 215.1875 C155.25 212.875 155.25 212.875 155.8125 209.8125 C155.956875 208.843125 156.10125 207.87375 156.25 206.875 C154.87485459 205.1662354 154.87485459 205.1662354 153.25 203.875 C153.25 202.885 153.25 201.895 153.25 200.875 C152.46625 200.813125 151.6825 200.75125 150.875 200.6875 C148.25 199.875 148.25 199.875 147.125 197.75 C146.691875 196.326875 146.691875 196.326875 146.25 194.875 C145.72148671 193.5986404 145.17938663 192.32783616 144.625 191.0625 C144.17125 190.010625 143.7175 188.95875 143.25 187.875 C142.92 188.535 142.59 189.195 142.25 189.875 C140.6 189.545 138.95 189.215 137.25 188.875 C137.25 187.885 137.25 186.895 137.25 185.875 C136.59 185.875 135.93 185.875 135.25 185.875 C135.25 183.235 135.25 180.595 135.25 177.875 C135.91 178.205 136.57 178.535 137.25 178.875 C137.98075648 181.1890622 138.65138258 183.52328869 139.25 185.875 C139.58 185.875 139.91 185.875 140.25 185.875 C139.70705237 178.00225941 138.17912124 170.22810434 135.25 162.875 C134.26 162.545 133.27 162.215 132.25 161.875 C131.0625 158.3125 131.0625 158.3125 130.25 154.875 C131.24 154.875 132.23 154.875 133.25 154.875 C132.95885103 149.56435474 132.95885103 149.56435474 130.9375 144.8125 C129.24656599 143.65064441 129.24656599 143.65064441 127.0625 144.1875 C126.464375 144.414375 125.86625 144.64125 125.25 144.875 C125.25 145.865 125.25 146.855 125.25 147.875 C118.90853659 149.0945122 118.90853659 149.0945122 116 148.125 C114.25 146.875 114.25 146.875 112.75 145.1875 C112.0075 144.5378125 112.0075 144.5378125 111.25 143.875 C109.08700789 144.10257731 109.08700789 144.10257731 107.25 144.875 C107.58 143.885 107.91 142.895 108.25 141.875 C110.56 141.875 112.87 141.875 115.25 141.875 C115.25 140.225 115.25 138.575 115.25 136.875 C116.24 136.875 117.23 136.875 118.25 136.875 C117.92 135.885 117.59 134.895 117.25 133.875 C116.59 133.545 115.93 133.215 115.25 132.875 C115.91 132.215 116.57 131.555 117.25 130.875 C117.00558954 128.34942523 116.42639341 127.0897398 114.8125 125.125 C113.32320645 123.66676832 113.32320645 123.66676832 111.25 123.875 C111.188125 122.988125 111.12625 122.10125 111.0625 121.1875 C110.05390976 117.07555519 108.27833322 115.75912687 105.25 112.875 C104.5075 111.3590625 104.5075 111.3590625 103.75 109.8125 C102.45211164 106.76647925 102.45211164 106.76647925 99.875 105 C96.37057615 102.16308545 94.46356193 98.75579794 92.25 94.875 C91.81042969 95.35582031 91.37085938 95.83664063 90.91796875 96.33203125 C88.79616701 98.29482209 87.06866616 98.49409917 84.25 98.875 C84.476875 98.318125 84.70375 97.76125 84.9375 97.1875 C85.47891458 93.18103211 82.83568963 90.67761171 80.5625 87.5625 C80.129375 87.005625 79.69625 86.44875 79.25 85.875 C81.23 86.205 83.21 86.535 85.25 86.875 C84.26 84.565 83.27 82.255 82.25 79.875 C80.765 80.37 80.765 80.37 79.25 80.875 C78.755 78.895 78.755 78.895 78.25 76.875 C77.26 76.875 76.27 76.875 75.25 76.875 C75.25 75.885 75.25 74.895 75.25 73.875 C76.57 73.545 77.89 73.215 79.25 72.875 C78.10852233 70.07551008 76.91747316 67.40327911 75.25 64.875 C72.80936559 64.20352082 72.80936559 64.20352082 70.25 63.875 C68.31564621 62.01992301 66.8596538 60.0365351 65.25 57.875 C66.24 57.215 67.23 56.555 68.25 55.875 C63.28664378 49.38184221 57.45548364 43.07947079 49.125 41.5625 C48.3 41.45679688 47.475 41.35109375 46.625 41.2421875 C44.209773 40.86878069 42.35235113 40.17066671 40.125 39.1875 C33.56801225 36.59886956 27.57111954 38.90376968 21.328125 41.3515625 C18.93242029 41.95499188 17.56415651 41.65680963 15.25 40.875 C15.188125 40.111875 15.12625 39.34875 15.0625 38.5625 C14.49091849 35.74569584 14.49091849 35.74569584 12.1875 34.25 C9.20970803 32.85613993 6.22395701 31.69093461 3.1171875 30.62109375 C1.25 29.875 1.25 29.875 -1.75 27.875 C-2.74 27.875 -3.73 27.875 -4.75 27.875 Z M33.25 34.875 C33.25 35.535 33.25 36.195 33.25 36.875 C34.85064843 37.40654742 36.45568874 37.92488353 38.0625 38.4375 C38.95582031 38.72753906 39.84914063 39.01757812 40.76953125 39.31640625 C43.36215139 40.12479556 43.36215139 40.12479556 46.25 38.875 C44.83774074 38.19904685 43.41997095 37.53459941 42 36.875 C41.21109375 36.50375 40.4221875 36.1325 39.609375 35.75 C37.0443343 34.64318748 37.0443343 34.64318748 33.25 34.875 Z M73.25 61.875 C74.25 63.875 74.25 63.875 74.25 63.875 Z M118.25 136.875 C119.25 139.875 119.25 139.875 119.25 139.875 Z M116.25 137.875 C117.25 140.875 117.25 140.875 117.25 140.875 Z M132.25 158.875 C132.25 159.535 132.25 160.195 132.25 160.875 C132.91 160.545 133.57 160.215 134.25 159.875 C133.59 159.545 132.93 159.215 132.25 158.875 Z M-40.75 170.875 C-44.20433342 174.37029389 -45.22716492 176.82065509 -45.19921875 181.7578125 C-45.17472656 182.45648438 -45.15023437 183.15515625 -45.125 183.875 C-45.12371094 184.57367188 -45.12242187 185.27234375 -45.12109375 185.9921875 C-45.05243171 190.03561892 -44.52661915 193.23648398 -42.75 196.875 C-42.09 195.555 -41.43 194.235 -40.75 192.875 C-41.08 192.545 -41.41 192.215 -41.75 191.875 C-42.20325251 185.52946488 -40.99617654 180.77557774 -38.75 174.875 C-38.42 173.885 -38.09 172.895 -37.75 171.875 C-38.74 171.545 -39.73 171.215 -40.75 170.875 Z M136.25 180.875 C137.25 183.875 137.25 183.875 137.25 183.875 Z M159.25 225.875 C158.92 226.865 158.59 227.855 158.25 228.875 C159.57 228.215 160.89 227.555 162.25 226.875 C161.26 226.545 160.27 226.215 159.25 225.875 Z M168.25 230.875 C167.9126154 233.99998166 167.9126154 233.99998166 170.25 236.0625 C170.91 236.660625 171.57 237.25875 172.25 237.875 C171.59 235.565 170.93 233.255 170.25 230.875 C169.59 230.875 168.93 230.875 168.25 230.875 Z M172.25 231.875 C172.91 233.195 173.57 234.515 174.25 235.875 C173.92 234.555 173.59 233.235 173.25 231.875 C172.92 231.875 172.59 231.875 172.25 231.875 Z M174.25 235.875 C175.25 237.875 175.25 237.875 175.25 237.875 Z M176.25 238.875 C177.25 240.875 177.25 240.875 177.25 240.875 Z M176.25 242.875 C176.02837671 244.49824086 175.82310197 246.123721 175.625 247.75 C175.50898438 248.65492188 175.39296875 249.55984375 175.2734375 250.4921875 C175.26570312 251.27851563 175.25796875 252.06484375 175.25 252.875 C175.91 253.535 176.57 254.195 177.25 254.875 C177.25 250.915 177.25 246.955 177.25 242.875 C176.92 242.875 176.59 242.875 176.25 242.875 Z M178.25 242.875 C178.25 246.175 178.25 249.475 178.25 252.875 C179.24 252.875 180.23 252.875 181.25 252.875 C180.59 249.575 179.93 246.275 179.25 242.875 C178.92 242.875 178.59 242.875 178.25 242.875 Z M179.25 255.875 C180.25 257.875 180.25 257.875 180.25 257.875 Z M-31.75 285.875 C-31.09 287.855 -30.43 289.835 -29.75 291.875 C-29.42 291.875 -29.09 291.875 -28.75 291.875 C-28.75 290.225 -28.75 288.575 -28.75 286.875 C-29.74 286.545 -30.73 286.215 -31.75 285.875 Z " fill="#000000" transform="translate(242.75,22.125)"/>
<path d="M0 0 C1.33333333 0.33333333 2.66666667 0.66666667 4 1 C4.33 0.67 4.66 0.34 5 0 C6.92667507 -0.08748207 8.85651861 -0.10697334 10.78515625 -0.09765625 C12.53989258 -0.09282227 12.53989258 -0.09282227 14.33007812 -0.08789062 C15.56177734 -0.07951172 16.79347656 -0.07113281 18.0625 -0.0625 C19.91584961 -0.05573242 19.91584961 -0.05573242 21.80664062 -0.04882812 C24.87114117 -0.03699608 27.93554721 -0.02051173 31 0 C31.12375 0.639375 31.2475 1.27875 31.375 1.9375 C31.58125 2.618125 31.7875 3.29875 32 4 C32.66 4.33 33.32 4.66 34 5 C34 5.66 34 6.32 34 7 C30.04 7 26.08 7 22 7 C22 7.66 22 8.32 22 9 C21.34 9 20.68 9 20 9 C20 8.34 20 7.68 20 7 C17.36 7 14.72 7 12 7 C12 5.35 12 3.7 12 2 C11.34 2 10.68 2 10 2 C10 3.65 10 5.3 10 7 C8.35 7 6.7 7 5 7 C5 6.01 5 5.02 5 4 C4.67 4.99 4.34 5.98 4 7 C2.35 6.67 0.7 6.34 -1 6 C-1.042721 4.33388095 -1.04063832 2.66617115 -1 1 C-0.67 0.67 -0.34 0.34 0 0 Z M22 2 C22 2.99 22 3.98 22 5 C22.66 5 23.32 5 24 5 C24 4.01 24 3.02 24 2 C23.34 2 22.68 2 22 2 Z " fill="#000000" transform="translate(551,444)"/>
<path d="M0 0 C7.70784686 -0.67024755 14.65967358 1.80004829 20.625 6.75 C21.40875 7.4925 22.1925 8.235 23 9 C22 11 22 11 21 12 C21.40929986 14.05396726 21.40929986 14.05396726 22 16 C18.44633665 15.40241087 16.58027957 14.01843277 13.875 11.6875 C9.26610206 7.96050433 4.58703809 5.87789798 -1 4 C-0.67 2.68 -0.34 1.36 0 0 Z M0 2 C2.64362871 4.64362871 5.27252067 5.10163281 8.80859375 6.12109375 C11.15754867 7.06318797 12.35749787 8.10399272 14 10 C14.66 9.67 15.32 9.34 16 9 C15.67 8.34 15.34 7.68 15 7 C15.66 6.67 16.32 6.34 17 6 C11.02667877 2.5246131 6.88490225 1.42625815 0 2 Z " fill="#000000" transform="translate(198,101)"/>
<path d="M0 0 C2.125 0.375 2.125 0.375 4 1 C4 3.64 4 6.28 4 9 C5.32 9 6.64 9 8 9 C8.33 9.99 8.66 10.98 9 12 C10.29355827 13.37195574 11.62298702 14.71182656 13 16 C11.34550895 16.38929201 9.67453799 16.708776 8 17 C7.01 17.185625 6.02 17.37125 5 17.5625 C1.45386586 16.89759985 1.06103613 16.30520559 -0.9375 13.4375 C-2.72876819 10.20517951 -2.9995315 8.97095281 -2.9375 5.125 C-2 2 -2 2 0 0 Z M0 2 C-1.40579492 4.62526741 -1.40579492 4.62526741 -2 8 C-0.97381014 10.65010886 0.38484561 12.62477296 2 15 C4.64 15 7.28 15 10 15 C7.20579508 11.08396696 7.20579508 11.08396696 3 9 C2.67 6.69 2.34 4.38 2 2 C1.34 2 0.68 2 0 2 Z " fill="#000000" transform="translate(215,30)"/>
<path d="M0 0 C4.55555556 0.55555556 4.55555556 0.55555556 6 2 C6.1875 4.4375 6.1875 4.4375 6 7 C5.34 7.66 4.68 8.32 4 9 C-0.55555556 8.44444444 -0.55555556 8.44444444 -2 7 C-2.1875 4.5625 -2.1875 4.5625 -2 2 C-1.34 1.34 -0.68 0.68 0 0 Z M2 3 C1.67 3.66 1.34 4.32 1 5 C2.32 5.33 3.64 5.66 5 6 C4.67 5.01 4.34 4.02 4 3 C3.34 3 2.68 3 2 3 Z " fill="#000000" transform="translate(534,442)"/>
<path d="M0 0 C1.1446875 0.2475 1.1446875 0.2475 2.3125 0.5 C5.03392445 1.00631153 6.40067115 0.74266539 9 0 C10 1 10 1 10.0625 3.5625 C10.041875 4.366875 10.02125 5.17125 10 6 C6.01080675 7.1004671 2.98919325 7.1004671 -1 6 C-1.042721 4.33388095 -1.04063832 2.66617115 -1 1 C-0.67 0.67 -0.34 0.34 0 0 Z M1 2 C1 2.99 1 3.98 1 5 C1.99 4.67 2.98 4.34 4 4 C3.01 3.34 2.02 2.68 1 2 Z M6 2 C6 2.99 6 3.98 6 5 C6.99 4.67 7.98 4.34 9 4 C8.67 3.34 8.34 2.68 8 2 C7.34 2 6.68 2 6 2 Z " fill="#000000" transform="translate(587,444)"/>
<path d="M0 0 C6.15234375 -0.09765625 6.15234375 -0.09765625 8 0 C9 1 9 1 9.0625 4.0625 C9.041875 5.031875 9.02125 6.00125 9 7 C8.34 7 7.68 7 7 7 C7 5.35 7 3.7 7 2 C6.34 2 5.68 2 5 2 C5 3.65 5 5.3 5 7 C3.35 7 1.7 7 0 7 C0 4.69 0 2.38 0 0 Z " fill="#000000" transform="translate(598,444)"/>
<path d="M0 0 C0.99 0.33 1.98 0.66 3 1 C3 1.66 3 2.32 3 3 C4.65 3 6.3 3 8 3 C8.33 4.65 8.66 6.3 9 8 C6.75 9.125 6.75 9.125 4 10 C1.6875 9.125 1.6875 9.125 0 8 C0 5.36 0 2.72 0 0 Z M1 2 C1.33 3.65 1.66 5.3 2 7 C3.65 7.33 5.3 7.66 7 8 C7 7.01 7 6.02 7 5 C6.195625 4.87625 5.39125 4.7525 4.5625 4.625 C3.716875 4.41875 2.87125 4.2125 2 4 C1.67 3.34 1.34 2.68 1 2 Z " fill="#000000" transform="translate(192,52)"/>
<path d="M0 0 C0.66 0 1.32 0 2 0 C2.66 0.99 3.32 1.98 4 3 C4.33 2.01 4.66 1.02 5 0 C5.66 0 6.32 0 7 0 C6.38461538 5.53846154 6.38461538 5.53846154 4.4375 7.875 C3.7259375 8.431875 3.7259375 8.431875 3 9 C0 3.375 0 3.375 0 0 Z " fill="#000000" transform="translate(543,442)"/>
</svg>
